<?xml version="1.0" encoding="utf-8"?>
<!-- Generator: Adobe Illustrator 16.0.0, SVG Export Plug-In . SVG Version: 6.00 Build 0)  -->
<!DOCTYPE svg PUBLIC "-//W3C//DTD SVG 1.1//EN" "http://www.w3.org/Graphics/SVG/1.1/DTD/svg11.dtd">
<svg version="1.1" id="Layer_1" xmlns="http://www.w3.org/2000/svg" xmlns:xlink="http://www.w3.org/1999/xlink" x="0px" y="0px"
	 width="1301.82px" height="284.605px" viewBox="0 0 1301.82 284.605" enable-background="new 0 0 1301.82 284.605"
	 xml:space="preserve">
<g>
	<defs>
		<rect id="SVGID_1_" width="1301.823" height="284.605"/>
	</defs>
	<clipPath id="SVGID_2_">
		<use xlink:href="#SVGID_1_"  overflow="visible"/>
	</clipPath>
	<path clip-path="url(#SVGID_2_)" fill="none" stroke="#000000" stroke-width="25" d="M526.823,13.062c4.5,4.75,3,13.5,3,19.75
		c-4.5,5-12,6-15.75,12c-4,19.5-2,41-1.75,60.75l3.75,3.5c19-0.75,36.75,2.25,54.5-0.5l2.5-4.75c0.75-18.5,1.5-41.75-3-60
		c-4.75-4.75-10.75-6.25-15.75-10.25c0.25-6.5-1.25-15.75,3.75-20.5l99.5,0.75c4.75,4.25,3.75,12.75,3,19
		c-5.5,6.25-16,4.5-20.5,13.25l-3,14.5l0.75,159c1.75,5,0.75,11,5.25,15c5.75,4.25,13,5.5,17.5,10.75c-0.25,7.25,1,14.25-2.5,21
		l-8.25,1.75c-29.5-1.5-66,0.75-96.75-1.75c-4-5.5-4.5-13.25-4-21c7-7,20.25-7.25,22.75-18c1.5-26,1.75-49.25,0.5-76.25l-4.25-3.5
		h-52c-6.75,3-2.25,12.5-4.25,17.25c2,21.75-5,49.5,6,69.75c6,4.25,15,5.25,18,13.25c-1,6.75,0.5,16-6,19.75
		c-35.25-1-69.75,1.75-103.75-1.75c-4.5-6-1.75-13-2.5-20.5c6.5-7.25,19-7.25,21.5-18l2.5-15l-0.5-157.75c3-22-33-10.5-23-34.75
		c0.75-2.5,1.25-5.75,4.25-6.75C460.823,12.312,496.573,12.312,526.823,13.062z"/>
	<path clip-path="url(#SVGID_2_)" fill="none" stroke="#000000" stroke-width="25" d="M1151.822,16.062c3.75,1.25,6,5.25,7.25,8.5
		l0.5,119.25c8.5,3.75,14.75-7.5,20.5-11.25c7-7.5,15.5-14,19.25-23.5c-3.25-7.25-13.75-5.25-12.75-13.75
		c1.5-5.5-0.75-13.25,5.5-15.5l81,0.5c4.25,4.75,4.25,14,2.5,20.5c-21.75,7-39.5,26.75-55.25,44.25c-0.5,4.75,2.25,9.5,4.75,13.75
		c14.75,26.25,27.5,53.25,46.25,78c5.25,5.25,13.5,4.25,18,10.25c0,7-0.25,14.25-3.75,20.5c-19.25,2-43.5,1.25-62.25,0.5l-5.5-6
		c-14.25-23.75-25.75-50.25-42-73.25c-5.75,1.75-10.5,6-15,11c-3.25,12.75-2,25.75,3.75,37c4.5,4.75,10.5,5.75,15,10.25
		c-0.25,7.25,0.75,14.75-3,20.5l-4.25,1.75l-89.5-1.25c-5.75-4.75-4.25-15-3.5-21.5c6.5-5,16-8.5,18.5-16.75l1.75-20.5V57.562
		c1.5-14.25-12.75-16.25-20.25-24c0-6.75-1.5-15.25,6-18L1151.822,16.062z"/>
	<path clip-path="url(#SVGID_2_)" fill="none" stroke="#000000" stroke-width="25" d="M1031.072,94.062c6.5,8.5,9,18.5,9.5,29.5
		l0.5,111c5.75,8.75,12.75-6.75,20.5-1.75c4.5,3.25,7.25,8.25,6,13c-8,16-25.75,23.75-43.25,24c-15.5,0.25-30.5-5-38.25-19l-3.75-12
		l-0.5-108.75c-1.75-4.75-5.75-10.25-10.75-12c-7.25-3-14.75,0.25-20.5,4.25c-7.25,4.75-8,12-10.75,18.5
		c-0.25,30-3,62.25,2.25,90.75c3,9,13.5,7,17.5,15c-0.25,7.5,1,16.25-5.5,21l-89.25-0.75c-7-3.75-4-14.25-4.75-21
		c6-6.25,16.5-8.25,18.5-18.5c3.25-35.5,1.5-69.25,1.75-105c1.5-11.75-11.5-16.25-16.75-24c1.75-5.75-2-17.75,7.25-16.75
		c21,0,40.25-1,63-0.75c5,2.5,3.75,9,9,11.5c19.5-8.25,40.5-19,63.5-13.75C1015.822,80.562,1024.072,85.812,1031.072,94.062z"/>
	<path clip-path="url(#SVGID_2_)" fill="none" stroke="#000000" stroke-width="25" d="M847.823,211.812c-4.5-5-10.5-6.5-16.75-6.75
		c-11,10.5-22.5,19-35,25.75c-3.75,2-8.5,1.25-12.5,3c-16.5,3.5-36.5,0.75-46.25-13.75c-0.5-6.75-11.75-12-4.25-19.25
		c20.75-4.75,39.75-13.5,60-19.75c18-8.25,36.75-14,52.25-27.5c9.25-16.75-8-30-15-43.75c-8.5-13.25-22-22.5-35.25-27.75
		c-35-15-75.25-5.25-102.75,19.25c-30.5,27.5-35,74.5-21.5,112.25c16.25,33.5,51.5,56.5,87,58.25c21.25,1.75,42-4.5,60-14.5
		c11.75-10.25,28.25-17.5,34.25-33C851.573,219.812,850.823,215.062,847.823,211.812z M729.573,124.062
		c3.75-9,13.25-16.75,22.75-18.5c8-0.75,15.25,0.5,21,4.75c10,10.5,17,23,15,37.75c-5,7.75-13.5,12.5-22.25,13.75
		c-11.75,2.75-23.25,9.75-36,6.75C721.073,155.812,725.573,137.562,729.573,124.062z"/>
	<path clip-path="url(#SVGID_2_)" fill="#ED1C24" d="M526.823,12.125c4.5,4.75,3,13.5,3,19.75c-4.5,5-12,6-15.75,12
		c-4,19.5-2,41-1.75,60.75l3.75,3.5c19-0.75,36.75,2.25,54.5-0.5l2.5-4.75c0.75-18.5,1.5-41.75-3-60
		c-4.75-4.75-10.75-6.25-15.75-10.25c0.25-6.5-1.25-15.75,3.75-20.5l99.5,0.75c4.75,4.25,3.75,12.75,3,19
		c-5.5,6.25-16,4.5-20.5,13.25l-3,14.5l0.75,159c1.75,5,0.75,11,5.25,15c5.75,4.25,13,5.5,17.5,10.75c-0.25,7.25,1,14.25-2.5,21
		l-8.25,1.75c-29.5-1.5-66,0.75-96.75-1.75c-4-5.5-4.5-13.25-4-21c7-7,20.25-7.25,22.75-18c1.5-26,1.75-49.25,0.5-76.25l-4.25-3.5
		h-52c-6.75,3-2.25,12.5-4.25,17.25c2,21.75-5,49.5,6,69.75c6,4.25,15,5.25,18,13.25c-1,6.75,0.5,16-6,19.75
		c-35.25-1-69.75,1.75-103.75-1.75c-4.5-6-1.75-13-2.5-20.5c6.5-7.25,19-7.25,21.5-18l2.5-15l-0.5-157.75c3-22-33-10.5-23-34.75
		c0.75-2.5,1.25-5.75,4.25-6.75C460.823,11.375,496.573,11.375,526.823,12.125"/>
	<path clip-path="url(#SVGID_2_)" fill="#ED1C24" d="M1151.822,15.125c3.75,1.25,6,5.25,7.25,8.5l0.5,119.25
		c8.5,3.75,14.75-7.5,20.5-11.25c7-7.5,15.5-14,19.25-23.5c-3.25-7.25-13.75-5.25-12.75-13.75c1.5-5.5-0.75-13.25,5.5-15.5l81,0.5
		c4.25,4.75,4.25,14,2.5,20.5c-21.75,7-39.5,26.75-55.25,44.25c-0.5,4.75,2.25,9.5,4.75,13.75c14.75,26.25,27.5,53.25,46.25,78
		c5.25,5.25,13.5,4.25,18,10.25c0,7-0.25,14.25-3.75,20.5c-19.25,2-43.5,1.25-62.25,0.5l-5.5-6c-14.25-23.75-25.75-50.25-42-73.25
		c-5.75,1.75-10.5,6-15,11c-3.25,12.75-2,25.75,3.75,37c4.5,4.75,10.5,5.75,15,10.25c-0.25,7.25,0.75,14.75-3,20.5l-4.25,1.75
		l-89.5-1.25c-5.75-4.75-4.25-15-3.5-21.5c6.5-5,16-8.5,18.5-16.75l1.75-20.5V56.625c1.5-14.25-12.75-16.25-20.25-24
		c0-6.75-1.5-15.25,6-18L1151.822,15.125z"/>
	<path clip-path="url(#SVGID_2_)" fill="#ED1C24" d="M1031.072,93.125c6.5,8.5,9,18.5,9.5,29.5l0.5,111
		c5.75,8.75,12.75-6.75,20.5-1.75c4.5,3.25,7.25,8.25,6,13c-8,16-25.75,23.75-43.25,24c-15.5,0.25-30.5-5-38.25-19l-3.75-12
		l-0.5-108.75c-1.75-4.75-5.75-10.25-10.75-12c-7.25-3-14.75,0.25-20.5,4.25c-7.25,4.75-8,12-10.75,18.5
		c-0.25,30-3,62.25,2.25,90.75c3,9,13.5,7,17.5,15c-0.25,7.5,1,16.25-5.5,21l-89.25-0.75c-7-3.75-4-14.25-4.75-21
		c6-6.25,16.5-8.25,18.5-18.5c3.25-35.5,1.5-69.25,1.75-105c1.5-11.75-11.5-16.25-16.75-24c1.75-5.75-2-17.75,7.25-16.75
		c21,0,40.25-1,63-0.75c5,2.5,3.75,9,9,11.5c19.5-8.25,40.5-19,63.5-13.75C1015.822,79.625,1024.072,84.875,1031.072,93.125"/>
	<path clip-path="url(#SVGID_2_)" fill="#ED1C24" d="M847.823,210.875c-4.5-5-10.5-6.5-16.75-6.75c-11,10.5-22.5,19-35,25.75
		c-3.75,2-8.5,1.25-12.5,3c-16.5,3.5-36.5,0.75-46.25-13.75c-0.5-6.75-11.75-12-4.25-19.25c20.75-4.75,39.75-13.5,60-19.75
		c18-8.25,36.75-14,52.25-27.5c9.25-16.75-8-30-15-43.75c-8.5-13.25-22-22.5-35.25-27.75c-35-15-75.25-5.25-102.75,19.25
		c-30.5,27.5-35,74.5-21.5,112.25c16.25,33.5,51.5,56.5,87,58.25c21.25,1.75,42-4.5,60-14.5c11.75-10.25,28.25-17.5,34.25-33
		C851.573,218.875,850.823,214.125,847.823,210.875 M729.573,123.125c3.75-9,13.25-16.75,22.75-18.5c8-0.75,15.25,0.5,21,4.75
		c10,10.5,17,23,15,37.75c-5,7.75-13.5,12.5-22.25,13.75c-11.75,2.75-23.25,9.75-36,6.75
		C721.073,154.875,725.573,136.625,729.573,123.125"/>
	<path clip-path="url(#SVGID_2_)" fill="none" stroke="#000000" stroke-width="16.875" d="M346.328,108.222
		c-4.175-8.655-71.522-126.614-188.791-89.514C12.035,64.741,26.702,131.327,24.141,190.802c-0.045,1.026-0.061,2.033-0.072,3.036
		c-4.105-3.029-8.057-4.16-11.046-2.68c-6.582,3.258-6.01,17.836,1.279,32.558c7.289,14.724,18.533,24.019,25.115,20.759
		c0.963-0.477,1.754-1.221,2.412-2.146c32.279,34.282,103.124,37.433,167.07,21.65C296.53,242.35,372.193,161.838,346.328,108.222z"
		/>
	
		<ellipse transform="matrix(0.2396 0.9709 -0.9709 0.2396 251.1932 -32.9499)" clip-path="url(#SVGID_2_)" fill="none" stroke="#000000" stroke-width="8.859" cx="146.632" cy="143.891" rx="50.342" ry="52.18"/>
	
		<ellipse transform="matrix(0.2396 0.9709 -0.9709 0.2396 306.5734 -160.6244)" clip-path="url(#SVGID_2_)" fill="none" stroke="#000000" stroke-width="8.859" cx="255.832" cy="115.409" rx="45.145" ry="42.346"/>
	
		<rect x="55.086" y="135.084" transform="matrix(0.2396 0.9709 -0.9709 0.2396 208.1886 70.1763)" clip-path="url(#SVGID_2_)" width="8.414" height="65.825"/>
	
		<rect x="55.086" y="135.084" transform="matrix(0.2396 0.9709 -0.9709 0.2396 208.1886 70.1763)" clip-path="url(#SVGID_2_)" fill="none" stroke="#000000" stroke-width="8.859" width="8.414" height="65.825"/>
	<polygon clip-path="url(#SVGID_2_)" points="331.843,92.676 329.483,86.691 297.099,100.051 299.46,106.037 	"/>
	<polygon clip-path="url(#SVGID_2_)" fill="none" stroke="#000000" stroke-width="8.859" points="331.843,92.676 329.483,86.691 
		297.099,100.051 299.46,106.037 	"/>
	<path clip-path="url(#SVGID_2_)" d="M199.719,133.846c0,0,4.504-20.993,15.133-2.716"/>
	<path clip-path="url(#SVGID_2_)" fill="none" stroke="#000000" stroke-width="8.859" d="M199.719,133.846
		c0,0,4.504-20.993,15.133-2.716"/>
	<path clip-path="url(#SVGID_2_)" fill="none" stroke="#000000" stroke-width="8.438" d="M135.632,163.347
		c0,0,2.873-89.341,40.613-13.082"/>
	<path clip-path="url(#SVGID_2_)" fill="none" stroke="#000000" stroke-width="8.438" d="M226.412,142.469
		c0,0,14.624-72.939,40.345-3.841"/>
	<path clip-path="url(#SVGID_2_)" fill="none" stroke="#000000" stroke-width="8.438" d="M194.341,182.152
		c0,0,23.142-49.244,43.24-8.633"/>
	
		<line clip-path="url(#SVGID_2_)" fill="none" stroke="#000000" stroke-width="8.438" x1="79.824" y1="107.761" x2="63.407" y2="138.321"/>
	
		<line clip-path="url(#SVGID_2_)" fill="none" stroke="#000000" stroke-width="8.438" x1="61.464" y1="105.665" x2="45.409" y2="135.626"/>
	<polygon clip-path="url(#SVGID_2_)" fill="none" stroke="#000000" stroke-width="8.438" points="40.472,114.122 32.705,142.547 
		24.854,145.289 35.511,114.11 38.756,112.799 	"/>
	<path clip-path="url(#SVGID_2_)" fill="none" stroke="#000000" stroke-width="12.656" d="M169.299,231.969
		c0,0,10.951,2.312,22.098,0.749c16.377-2.293,40.286-11.791,74.827-31.447"/>
</g>
</svg>
