<?xml version="1.0" encoding="utf-8"?>
<!-- Generator: Adobe Illustrator 18.0.0, SVG Export Plug-In . SVG Version: 6.00 Build 0)  -->
<!DOCTYPE svg PUBLIC "-//W3C//DTD SVG 1.1//EN" "http://www.w3.org/Graphics/SVG/1.1/DTD/svg11.dtd">
<svg version="1.1" id="Layer_1" xmlns="http://www.w3.org/2000/svg" xmlns:xlink="http://www.w3.org/1999/xlink" x="0px" y="0px"
	 viewBox="0 0 1303 286" enable-background="new 0 0 1303 286" xml:space="preserve">
<g>
	<g>
		<g>
			<path fill="none" stroke="#000000" stroke-width="25" d="M527.2,12.8c4.5,4.8,3,13.5,3,19.8c-4.5,5-12,6-15.8,12
				c-4,19.5-2,41-1.8,60.7l3.8,3.5c19-0.8,36.8,2.2,54.5-0.5l2.5-4.8c0.8-18.5,1.5-41.7-3-60c-4.8-4.8-10.8-6.2-15.8-10.2
				c0.2-6.5-1.2-15.8,3.8-20.5l99.5,0.8c4.8,4.2,3.8,12.8,3,19c-5.5,6.2-16,4.5-20.5,13.2l-3,14.5l0.8,159c1.8,5,0.8,11,5.2,15
				c5.8,4.2,13,5.5,17.5,10.8c-0.2,7.2,1,14.2-2.5,21l-8.2,1.8c-29.5-1.5-66,0.8-96.8-1.8c-4-5.5-4.5-13.2-4-21
				c7-7,20.2-7.2,22.8-18c1.5-26,1.8-49.2,0.5-76.2l-4.2-3.5h-52c-6.7,3-2.2,12.5-4.2,17.2c2,21.8-5,49.5,6,69.8
				c6,4.2,15,5.2,18,13.2c-1,6.8,0.5,16-6,19.7c-35.2-1-69.7,1.8-103.7-1.8c-4.5-6-1.8-13-2.5-20.5c6.5-7.2,19-7.2,21.5-18l2.5-15
				l-0.5-157.8c3-22-33-10.5-23-34.8c0.8-2.5,1.2-5.8,4.2-6.8C461.2,12.1,497,12.1,527.2,12.8z"/>
			<path fill="none" stroke="#000000" stroke-width="25" d="M1152.2,15.8c3.8,1.3,6,5.3,7.2,8.5l0.5,119.2
				c8.5,3.8,14.8-7.5,20.5-11.2c7-7.5,15.5-14,19.2-23.5c-3.2-7.2-13.8-5.2-12.8-13.8c1.5-5.5-0.8-13.2,5.5-15.5l81,0.5
				c4.2,4.8,4.2,14,2.5,20.5c-21.8,7-39.5,26.8-55.2,44.2c-0.5,4.8,2.2,9.5,4.8,13.8c14.8,26.3,27.5,53.2,46.2,78
				c5.2,5.2,13.5,4.2,18,10.2c0,7-0.2,14.2-3.8,20.5c-19.2,2-43.5,1.2-62.2,0.5l-5.5-6c-14.2-23.7-25.8-50.2-42-73.2
				c-5.8,1.8-10.5,6-15,11c-3.2,12.7-2,25.7,3.8,37c4.5,4.8,10.5,5.8,15,10.2c-0.2,7.2,0.8,14.7-3,20.5l-4.2,1.8l-89.5-1.2
				c-5.8-4.8-4.2-15-3.5-21.5c6.5-5,16-8.5,18.5-16.8l1.8-20.5V57.3c1.5-14.2-12.8-16.2-20.2-24c0-6.8-1.5-15.2,6-18L1152.2,15.8z"
				/>
			<path fill="none" stroke="#000000" stroke-width="25" d="M1031.5,93.8c6.5,8.5,9,18.5,9.5,29.5l0.5,111
				c5.8,8.8,12.8-6.8,20.5-1.8c4.5,3.2,7.2,8.2,6,13c-8,16-25.8,23.7-43.2,24c-15.5,0.2-30.5-5-38.2-19l-3.8-12l-0.5-108.8
				c-1.8-4.8-5.8-10.2-10.8-12c-7.2-3-14.8,0.2-20.5,4.2c-7.2,4.8-8,12-10.8,18.5c-0.2,30-3,62.2,2.2,90.8c3,9,13.5,7,17.5,15
				c-0.2,7.5,1,16.2-5.5,21l-89.2-0.8c-7-3.8-4-14.2-4.8-21c6-6.2,16.5-8.2,18.5-18.5c3.2-35.5,1.5-69.2,1.8-105
				c1.5-11.8-11.5-16.2-16.8-24c1.8-5.8-2-17.8,7.2-16.8c21,0,40.2-1,63-0.8c5,2.5,3.8,9,9,11.5c19.5-8.2,40.5-19,63.5-13.8
				C1016.2,80.3,1024.5,85.6,1031.5,93.8z"/>
			<path fill="none" stroke="#000000" stroke-width="25" d="M848.2,211.6c-4.5-5-10.5-6.5-16.8-6.8c-11,10.5-22.5,19-35,25.8
				c-3.8,2-8.5,1.2-12.5,3c-16.5,3.5-36.5,0.8-46.2-13.8c-0.5-6.8-11.8-12-4.2-19.2c20.8-4.7,39.8-13.5,60-19.7
				c18-8.3,36.8-14,52.2-27.5c9.2-16.8-8-30-15-43.8c-8.5-13.2-22-22.5-35.2-27.8c-35-15-75.2-5.2-102.8,19.2
				c-30.5,27.5-35,74.5-21.5,112.2c16.2,33.5,51.5,56.5,87,58.2c21.2,1.8,42-4.5,60-14.5c11.8-10.2,28.2-17.5,34.2-33
				C852,219.6,851.2,214.8,848.2,211.6z M730,123.8c3.8-9,13.2-16.8,22.8-18.5c8-0.8,15.2,0.5,21,4.8c10,10.5,17,23,15,37.8
				c-5,7.8-13.5,12.5-22.2,13.8c-11.8,2.8-23.2,9.8-36,6.8C721.5,155.6,726,137.3,730,123.8z"/>
		</g>
		<g>
			<path fill="#ED1C24" d="M527.2,11.9c4.5,4.7,3,13.5,3,19.8c-4.5,5-12,6-15.8,12c-4,19.5-2,41-1.8,60.8l3.8,3.5
				c19-0.8,36.8,2.2,54.5-0.5l2.5-4.8c0.8-18.5,1.5-41.8-3-60c-4.8-4.8-10.8-6.2-15.8-10.2c0.2-6.5-1.2-15.8,3.8-20.5l99.5,0.8
				c4.8,4.2,3.8,12.7,3,19c-5.5,6.3-16,4.5-20.5,13.3l-3,14.5l0.8,159c1.8,5,0.8,11,5.2,15c5.8,4.2,13,5.5,17.5,10.8
				c-0.2,7.2,1,14.2-2.5,21l-8.2,1.8c-29.5-1.5-66,0.8-96.8-1.8c-4-5.5-4.5-13.2-4-21c7-7,20.2-7.2,22.8-18
				c1.5-26,1.8-49.2,0.5-76.2l-4.2-3.5h-52c-6.7,3-2.2,12.5-4.2,17.2c2,21.8-5,49.5,6,69.8c6,4.2,15,5.2,18,13.2
				c-1,6.8,0.5,16-6,19.7c-35.2-1-69.7,1.8-103.7-1.8c-4.5-6-1.8-13-2.5-20.5c6.5-7.2,19-7.2,21.5-18l2.5-15l-0.5-157.8
				c3-22-33-10.5-23-34.8c0.8-2.5,1.2-5.7,4.2-6.7C461.2,11.1,497,11.1,527.2,11.9z"/>
			<path fill="#ED1C24" d="M1152.2,14.9c3.8,1.2,6,5.2,7.2,8.5l0.5,119.2c8.5,3.8,14.8-7.5,20.5-11.2c7-7.5,15.5-14,19.2-23.5
				c-3.2-7.2-13.8-5.2-12.8-13.8c1.5-5.5-0.8-13.2,5.5-15.5l81,0.5c4.2,4.8,4.2,14,2.5,20.5c-21.8,7-39.5,26.8-55.2,44.2
				c-0.5,4.8,2.2,9.5,4.8,13.8c14.8,26.3,27.5,53.2,46.2,78c5.2,5.2,13.5,4.2,18,10.2c0,7-0.2,14.2-3.8,20.5
				c-19.2,2-43.5,1.2-62.2,0.5l-5.5-6c-14.2-23.7-25.8-50.2-42-73.2c-5.8,1.8-10.5,6-15,11c-3.2,12.7-2,25.7,3.8,37
				c4.5,4.8,10.5,5.8,15,10.2c-0.2,7.2,0.8,14.7-3,20.5l-4.2,1.8l-89.5-1.2c-5.8-4.8-4.2-15-3.5-21.5c6.5-5,16-8.5,18.5-16.8
				l1.8-20.5V56.4c1.5-14.2-12.8-16.2-20.2-24c0-6.8-1.5-15.3,6-18L1152.2,14.9z"/>
			<path fill="#ED1C24" d="M1031.5,92.9c6.5,8.5,9,18.5,9.5,29.5l0.5,111c5.8,8.8,12.8-6.8,20.5-1.8c4.5,3.2,7.2,8.2,6,13
				c-8,16-25.8,23.7-43.2,24c-15.5,0.2-30.5-5-38.2-19l-3.8-12l-0.5-108.8c-1.8-4.8-5.8-10.2-10.8-12c-7.2-3-14.8,0.2-20.5,4.2
				c-7.2,4.8-8,12-10.8,18.5c-0.2,30-3,62.2,2.2,90.8c3,9,13.5,7,17.5,15c-0.2,7.5,1,16.2-5.5,21l-89.2-0.8c-7-3.8-4-14.2-4.8-21
				c6-6.2,16.5-8.2,18.5-18.5c3.2-35.5,1.5-69.2,1.8-105c1.5-11.8-11.5-16.2-16.8-24c1.8-5.8-2-17.8,7.2-16.8c21,0,40.2-1,63-0.8
				c5,2.5,3.8,9,9,11.5c19.5-8.2,40.5-19,63.5-13.8C1016.2,79.4,1024.5,84.6,1031.5,92.9z"/>
			<path fill="#ED1C24" d="M848.2,210.6c-4.5-5-10.5-6.5-16.8-6.8c-11,10.5-22.5,19-35,25.8c-3.8,2-8.5,1.2-12.5,3
				c-16.5,3.5-36.5,0.8-46.2-13.8c-0.5-6.8-11.8-12-4.2-19.2c20.8-4.8,39.8-13.5,60-19.8c18-8.2,36.8-14,52.2-27.5
				c9.2-16.8-8-30-15-43.8c-8.5-13.2-22-22.5-35.2-27.8c-35-15-75.2-5.2-102.8,19.2c-30.5,27.5-35,74.5-21.5,112.2
				c16.2,33.5,51.5,56.5,87,58.2c21.2,1.8,42-4.5,60-14.5c11.8-10.2,28.2-17.5,34.2-33C852,218.6,851.2,213.9,848.2,210.6z
				 M730,122.9c3.8-9,13.2-16.8,22.8-18.5c8-0.8,15.2,0.5,21,4.8c10,10.5,17,23,15,37.8c-5,7.8-13.5,12.5-22.2,13.8
				c-11.8,2.8-23.2,9.8-36,6.8C721.5,154.6,726,136.4,730,122.9z"/>
		</g>
	</g>
	<g>
		<g>
			<path fill="#FFFFFF" stroke="#000000" stroke-width="16.875" d="M346.7,108c-4.2-8.7-71.5-126.6-188.8-89.5
				C12.4,64.5,27.1,131.1,24.5,190.6c0,1-0.1,2-0.1,3c-4.1-3-8.1-4.2-11-2.7c-6.6,3.3-6,17.8,1.3,32.6c7.3,14.7,18.5,24,25.1,20.8
				c1-0.5,1.8-1.2,2.4-2.1c32.3,34.3,103.1,37.4,167.1,21.7C296.9,242.1,372.6,161.6,346.7,108z"/>
			<g>
				
					<ellipse transform="matrix(0.2396 0.9709 -0.9709 0.2396 251.2428 -33.5161)" fill="#FFFFFF" stroke="#000000" stroke-width="8.8594" cx="147" cy="143.6" rx="50.3" ry="52.2"/>
				
					<ellipse transform="matrix(0.2396 0.9709 -0.9709 0.2396 306.6231 -161.1907)" fill="#FFFFFF" stroke="#000000" stroke-width="8.8594" cx="256.2" cy="115.2" rx="45.1" ry="42.3"/>
				
					<rect x="55.5" y="134.8" transform="matrix(0.2396 0.9709 -0.9709 0.2396 208.2383 69.6109)" fill="#FFFFFF" stroke="#000000" stroke-width="8.8594" width="8.4" height="65.8"/>
				<polygon fill="#FFFFFF" stroke="#000000" stroke-width="8.8594" points="332.2,92.4 329.9,86.4 297.5,99.8 299.8,105.8 				"/>
				<path fill="#FFFFFF" stroke="#000000" stroke-width="8.8594" d="M200.1,133.6c0,0,4.5-21,15.1-2.7"/>
			</g>
			<path fill="#FFFFFF" stroke="#000000" stroke-width="8.4375" d="M136,163.1c0,0,2.9-89.3,40.6-13.1"/>
			<path fill="#FFFFFF" stroke="#000000" stroke-width="8.4375" d="M226.8,142.2c0,0,14.6-72.9,40.3-3.8"/>
			<path fill="#FFFFFF" stroke="#000000" stroke-width="8.4375" d="M194.7,181.9c0,0,23.1-49.2,43.2-8.6"/>
			<path fill="#FFFFFF" stroke="#000000" stroke-width="12.6562" d="M175,232"/>
			<line fill="#FFFFFF" stroke="#000000" stroke-width="8.4375" x1="80.2" y1="107.5" x2="63.8" y2="138.1"/>
			<line fill="#FFFFFF" stroke="#000000" stroke-width="8.4375" x1="61.9" y1="105.4" x2="45.8" y2="135.4"/>
			<polygon fill="#FFFFFF" stroke="#000000" stroke-width="8.4375" points="40.9,113.9 33.1,142.3 25.2,145 35.9,113.9 39.1,112.5 
							"/>
		</g>
		<path fill="#FFFFFF" stroke="#000000" stroke-width="12.6562" d="M169.7,231.7c0,0,11,2.3,22.1,0.7c16.4-2.3,40.3-11.8,74.8-31.4"
			/>
	</g>
</g>
</svg>
